<?xml version="1.0" encoding="utf-8"?>
<!-- Generator: Adobe Illustrator 24.0.0, SVG Export Plug-In . SVG Version: 6.00 Build 0)  -->
<svg version="1.1" id="圖層_1" xmlns="http://www.w3.org/2000/svg" xmlns:xlink="http://www.w3.org/1999/xlink" x="0px" y="0px"
	 viewBox="0 0 135 40" style="enable-background:new 0 0 135 40;" xml:space="preserve">
<style type="text/css">
	.st0{fill:none;stroke:#45525E;stroke-miterlimit:10;}
	.st1{fill:#45525E;}
	.st2{enable-background:new    ;}
</style>
<title>download_btn_ios</title>
<g id="圖層_2_1_">
	<path class="st0" d="M12.1,0.1h110.2c6.6,0,12,5.4,12,12v15.3c0,6.6-5.4,12-12,12H12.1c-6.6,0-12-5.4-12-12V12.1
		C0.1,5.5,5.5,0.1,12.1,0.1z"/>
	<path class="st1" d="M30.5,20.4c0-1.4,0.7-2.8,2-3.5c-0.8-1.1-2.1-1.8-3.5-1.8c-1.5-0.1-3,0.9-3.6,0.9s-2-0.8-3.1-0.8
		c-2.3,0-4.7,1.8-4.7,5.4c0,1.1,0.2,2.2,0.6,3.3c0.5,1.5,2.4,5.2,4.4,5.1c1,0,1.8-0.7,3.1-0.7s2,0.7,3.1,0.7c2,0,3.7-3.4,4.2-4.9
		C31.5,23.5,30.5,22,30.5,20.4L30.5,20.4z M28.2,13.7c0.7-0.8,1.1-1.9,1-3c-1.1,0.1-2.1,0.6-2.8,1.4c-0.7,0.8-1.1,1.8-1,2.9
		C26.5,15,27.5,14.5,28.2,13.7z"/>
	<g class="st2">
		<path class="st1" d="M52.1,27.7h-2.5l-0.5,1.9h-2l2.6-8.4h2.4l2.6,8.4h-2.1L52.1,27.7z M51.8,26.2l-0.2-0.7
			c-0.2-0.8-0.4-1.8-0.7-2.7h0c-0.2,0.9-0.4,1.9-0.6,2.7L50,26.2H51.8z"/>
		<path class="st1" d="M55.6,21.3h2.9c1.8,0,3.4,0.7,3.4,2.7c0,2-1.5,2.9-3.3,2.9h-1v2.8h-2V21.3z M58.5,25.3c1,0,1.5-0.5,1.5-1.3
			c0-0.8-0.5-1.1-1.5-1.1h-0.8v2.4H58.5z"/>
		<path class="st1" d="M63.3,21.3h2.9c1.8,0,3.4,0.7,3.4,2.7c0,2-1.5,2.9-3.3,2.9h-1v2.8h-2V21.3z M66.2,25.3c1,0,1.5-0.5,1.5-1.3
			c0-0.8-0.5-1.1-1.5-1.1h-0.8v2.4H66.2z"/>
	</g>
	<g class="st2">
		<path class="st1" d="M73.1,28.6l1.1-1.4c0.6,0.5,1.4,0.9,2,0.9c0.7,0,1.1-0.3,1.1-0.7c0-0.5-0.5-0.6-1.2-0.9L75.1,26
			c-0.9-0.3-1.7-1.1-1.7-2.3c0-1.4,1.3-2.5,3-2.5c1,0,2,0.4,2.7,1.1l-1,1.3c-0.6-0.4-1.1-0.6-1.7-0.6c-0.6,0-1,0.2-1,0.7
			c0,0.5,0.5,0.6,1.3,0.9l1,0.4c1,0.4,1.7,1.1,1.7,2.3c0,1.4-1.2,2.6-3.2,2.6C75.1,29.8,74,29.4,73.1,28.6z"/>
	</g>
	<g class="st2">
		<path class="st1" d="M82.2,23h-2.3v-1.7h6.5V23h-2.3v6.7h-2V23z"/>
	</g>
	<g class="st2">
		<path class="st1" d="M87,25.4c0-2.7,1.6-4.3,3.8-4.3s3.8,1.6,3.8,4.3c0,2.7-1.6,4.4-3.8,4.4S87,28.2,87,25.4z M92.6,25.4
			c0-1.6-0.7-2.6-1.8-2.6c-1.1,0-1.8,1-1.8,2.6c0,1.6,0.7,2.7,1.8,2.7C92,28.1,92.6,27.1,92.6,25.4z"/>
		<path class="st1" d="M100.8,29.7l-1.5-2.9h-1v2.9h-2v-8.4h3.1c1.8,0,3.3,0.6,3.3,2.6c0,1.2-0.6,2-1.4,2.4l1.9,3.3H100.8z
			 M98.3,25.1h0.9c1,0,1.5-0.4,1.5-1.2s-0.5-1-1.5-1h-0.9V25.1z"/>
		<path class="st1" d="M104.2,21.3h5.3V23h-3.3v1.6h2.8v1.7h-2.8V28h3.4v1.7h-5.4V21.3z"/>
	</g>
	<g class="st2">
		<path class="st1" d="M58.9,11.4h1.2v6.1h-1.2V11.4z"/>
		<path class="st1" d="M61,14.4c0-2,1.1-3.1,2.7-3.1c1.6,0,2.7,1.2,2.7,3.1c0,2-1.1,3.2-2.7,3.2C62.1,17.6,61,16.4,61,14.4z
			 M65.2,14.4c0-1.3-0.6-2.1-1.5-2.1s-1.5,0.8-1.5,2.1c0,1.3,0.6,2.1,1.5,2.1S65.2,15.7,65.2,14.4z"/>
		<path class="st1" d="M66.9,16.7l0.7-0.8c0.4,0.4,1,0.7,1.5,0.7c0.6,0,1-0.3,1-0.7c0-0.5-0.4-0.6-0.9-0.8l-0.8-0.3
			c-0.6-0.3-1.2-0.7-1.2-1.6c0-1,0.9-1.8,2.1-1.8c0.7,0,1.4,0.3,1.9,0.8l-0.6,0.8c-0.4-0.3-0.8-0.5-1.3-0.5c-0.5,0-0.9,0.2-0.9,0.6
			c0,0.4,0.4,0.6,1,0.8l0.8,0.3c0.7,0.3,1.2,0.8,1.2,1.7c0,1-0.8,1.8-2.2,1.8C68.3,17.6,67.5,17.3,66.9,16.7z"/>
		<path class="st1" d="M73.3,16.2c0-1,0.8-1.5,2.6-1.7c0-0.5-0.2-0.8-0.8-0.8c-0.4,0-0.8,0.2-1.3,0.4l-0.4-0.8
			c0.5-0.3,1.2-0.6,1.9-0.6c1.2,0,1.8,0.7,1.8,2v2.7h-1L76.1,17h0c-0.4,0.3-0.9,0.6-1.4,0.6C73.8,17.6,73.3,17,73.3,16.2z
			 M75.9,16.2v-0.9c-1.1,0.1-1.5,0.5-1.5,0.9c0,0.4,0.3,0.5,0.6,0.5C75.4,16.7,75.7,16.5,75.9,16.2z"/>
		<path class="st1" d="M78.1,12.9h1l0.1,0.5h0c0.4-0.3,0.9-0.6,1.4-0.6c1.1,0,1.8,0.9,1.8,2.3c0,1.6-0.9,2.5-2,2.5
			c-0.4,0-0.8-0.2-1.1-0.5l0,0.8v1.4h-1.2V12.9z M81.1,15.1c0-0.9-0.3-1.4-0.9-1.4c-0.3,0-0.6,0.2-0.9,0.5v2
			c0.3,0.3,0.6,0.3,0.8,0.3C80.7,16.6,81.1,16.1,81.1,15.1z"/>
		<path class="st1" d="M83,12.9h1l0.1,0.5h0c0.4-0.3,0.9-0.6,1.4-0.6c1.1,0,1.8,0.9,1.8,2.3c0,1.6-0.9,2.5-2,2.5
			c-0.4,0-0.8-0.2-1.1-0.5l0,0.8v1.4H83V12.9z M86.1,15.1c0-0.9-0.3-1.4-0.9-1.4c-0.3,0-0.6,0.2-0.9,0.5v2c0.3,0.3,0.6,0.3,0.8,0.3
			C85.6,16.6,86.1,16.1,86.1,15.1z"/>
		<path class="st1" d="M89.3,15.2c0-1.5,1.1-2.4,2.2-2.4s2.2,0.9,2.2,2.4c0,1.5-1.1,2.4-2.2,2.4S89.3,16.7,89.3,15.2z M92.4,15.2
			c0-0.9-0.4-1.4-1-1.4s-1,0.6-1,1.4c0,0.9,0.4,1.4,1,1.4S92.4,16.1,92.4,15.2z"/>
		<path class="st1" d="M94.4,12.9h1l0.1,0.6h0c0.4-0.4,0.9-0.7,1.5-0.7c1,0,1.4,0.7,1.4,1.9v2.9h-1.2v-2.7c0-0.7-0.2-1-0.6-1
			c-0.4,0-0.6,0.2-1,0.5v3.2h-1.2V12.9z"/>
	</g>
</g>
</svg>
