<?xml version="1.0" encoding="utf-8"?>
<!-- Generator: Adobe Illustrator 24.0.0, SVG Export Plug-In . SVG Version: 6.00 Build 0)  -->
<svg version="1.1" id="圖層_1" xmlns="http://www.w3.org/2000/svg" xmlns:xlink="http://www.w3.org/1999/xlink" x="0px" y="0px"
	 viewBox="0 0 135 40" style="enable-background:new 0 0 135 40;" xml:space="preserve">
<style type="text/css">
	.st0{fill:none;stroke:#45525E;stroke-miterlimit:10;}
	.st1{fill:#45525E;}
	.st2{enable-background:new    ;}
</style>
<title>download_btn_ios</title>
<g id="圖層_2_1_">
	<path class="st0" d="M12.1,0.1h110.2c6.6,0,12,5.4,12,12v15.3c0,6.6-5.4,12-12,12H12.1c-6.6,0-12-5.4-12-12V12.1
		C0.1,5.5,5.5,0.1,12.1,0.1z"/>
	<path class="st1" d="M27.1,20l-7.3-7.3l9.2,5.3L27.1,20L27.1,20z M18,12.2c-0.4,0.2-0.7,0.7-0.7,1.2v14.5c0,0.5,0.3,0.9,0.7,1.2
		l8.5-8.4L18,12.2z M32,19.7l-2-1.1l-2.2,2.1l2.2,2.1l2-1.1c0.6-0.5,0.6-1.3,0.1-1.9C32.1,19.8,32,19.7,32,19.7L32,19.7z M19.9,28.7
		l9.2-5.3l-2-2L19.9,28.7z"/>
	<g class="st2">
		<path class="st1" d="M39.5,25.5c0-2.8,1.9-4.4,4.1-4.4c1.2,0,2.1,0.5,2.7,1.1l-1.1,1.3c-0.4-0.4-0.8-0.7-1.5-0.7
			c-1.2,0-2.1,1-2.1,2.6c0,1.7,0.7,2.6,2.3,2.6c0.3,0,0.6-0.1,0.8-0.2v-1.3h-1.3v-1.6h3.1v3.9c-0.6,0.6-1.6,1-2.8,1
			C41.3,29.8,39.5,28.4,39.5,25.5z"/>
		<path class="st1" d="M47.8,25.4c0-2.7,1.6-4.3,3.8-4.3c2.3,0,3.8,1.6,3.8,4.3c0,2.7-1.6,4.4-3.8,4.4
			C49.3,29.8,47.8,28.2,47.8,25.4z M53.4,25.4c0-1.6-0.7-2.6-1.8-2.6s-1.8,1-1.8,2.6c0,1.6,0.7,2.7,1.8,2.7S53.4,27.1,53.4,25.4z"/>
		<path class="st1" d="M56.6,25.4c0-2.7,1.6-4.3,3.8-4.3c2.3,0,3.8,1.6,3.8,4.3c0,2.7-1.6,4.4-3.8,4.4
			C58.1,29.8,56.6,28.2,56.6,25.4z M62.2,25.4c0-1.6-0.7-2.6-1.8-2.6s-1.8,1-1.8,2.6c0,1.6,0.7,2.7,1.8,2.7S62.2,27.1,62.2,25.4z"/>
		<path class="st1" d="M65.4,25.5c0-2.8,1.9-4.4,4.1-4.4c1.2,0,2.1,0.5,2.7,1.1l-1.1,1.3c-0.4-0.4-0.8-0.7-1.5-0.7
			c-1.2,0-2.1,1-2.1,2.6c0,1.7,0.7,2.6,2.3,2.6c0.3,0,0.6-0.1,0.8-0.2v-1.3h-1.3v-1.6h3.1v3.9c-0.6,0.6-1.6,1-2.8,1
			C67.3,29.8,65.4,28.4,65.4,25.5z"/>
		<path class="st1" d="M74.1,21.3h2V28h3.2v1.7h-5.3V21.3z"/>
		<path class="st1" d="M80.8,21.3h5.3V23h-3.3v1.6h2.8v1.7h-2.8V28h3.4v1.7h-5.4V21.3z"/>
		<path class="st1" d="M90.4,21.3h2.9c1.8,0,3.4,0.7,3.4,2.7c0,2-1.5,2.9-3.3,2.9h-1v2.8h-2V21.3z M93.3,25.3c1,0,1.5-0.5,1.5-1.3
			c0-0.8-0.5-1.1-1.5-1.1h-0.8v2.4H93.3z"/>
	</g>
	<g class="st2">
		<path class="st1" d="M98.2,21.3h2V28h3.2v1.7h-5.3V21.3z"/>
	</g>
	<g class="st2">
		<path class="st1" d="M108.7,27.7h-2.5l-0.5,1.9h-2l2.6-8.4h2.4l2.6,8.4h-2.1L108.7,27.7z M108.3,26.2l-0.2-0.7
			c-0.2-0.8-0.4-1.8-0.7-2.7h0c-0.2,0.9-0.4,1.9-0.6,2.7l-0.2,0.7H108.3z"/>
	</g>
	<g class="st2">
		<path class="st1" d="M113.4,26.7l-2.5-5.4h2.1l0.7,1.9c0.2,0.6,0.4,1.2,0.7,1.9h0c0.2-0.7,0.5-1.2,0.7-1.9l0.7-1.9h2.1l-2.5,5.4v3
			h-2V26.7z"/>
	</g>
	<g class="st2">
		<path class="st1" d="M53.8,15.9h-2l-0.4,1.6h-1.2l1.9-6.1h1.4l2,6.1h-1.3L53.8,15.9z M53.5,15l-0.2-0.7c-0.2-0.6-0.4-1.3-0.5-2h0
			c-0.2,0.7-0.3,1.4-0.5,2L52.1,15H53.5z"/>
		<path class="st1" d="M55.8,12.9h1l0.1,0.6h0c0.4-0.4,0.9-0.7,1.5-0.7c1,0,1.4,0.7,1.4,1.9v2.9h-1.2v-2.7c0-0.7-0.2-1-0.6-1
			c-0.4,0-0.6,0.2-1,0.5v3.2h-1.2V12.9z"/>
		<path class="st1" d="M60.4,15.2c0-1.5,0.9-2.4,1.9-2.4c0.5,0,0.8,0.2,1.2,0.5l0-0.7v-1.6h1.2v6.6h-1L63.6,17h0
			c-0.3,0.3-0.8,0.6-1.3,0.6C61.2,17.6,60.4,16.7,60.4,15.2z M63.5,16.1v-2c-0.3-0.3-0.6-0.3-0.9-0.3c-0.5,0-1,0.5-1,1.4
			c0,1,0.3,1.4,1,1.4C63,16.6,63.2,16.5,63.5,16.1z"/>
	</g>
	<g class="st2">
		<path class="st1" d="M65.7,12.9h1l0.1,0.8h0c0.3-0.6,0.8-0.9,1.3-0.9c0.3,0,0.4,0,0.5,0.1l-0.2,1c-0.2,0-0.3-0.1-0.5-0.1
			c-0.4,0-0.8,0.2-1.1,0.9v2.7h-1.2V12.9z"/>
	</g>
	<g class="st2">
		<path class="st1" d="M68.6,15.2c0-1.5,1.1-2.4,2.2-2.4s2.2,0.9,2.2,2.4c0,1.5-1.1,2.4-2.2,2.4S68.6,16.7,68.6,15.2z M71.7,15.2
			c0-0.9-0.4-1.4-1-1.4s-1,0.6-1,1.4c0,0.9,0.4,1.4,1,1.4S71.7,16.1,71.7,15.2z"/>
		<path class="st1" d="M73.5,11.5c0-0.4,0.3-0.7,0.7-0.7c0.4,0,0.7,0.3,0.7,0.7c0,0.4-0.3,0.7-0.7,0.7
			C73.9,12.2,73.5,11.9,73.5,11.5z M73.7,12.9h1.2v4.6h-1.2V12.9z"/>
		<path class="st1" d="M75.6,15.2c0-1.5,0.9-2.4,1.9-2.4c0.5,0,0.8,0.2,1.2,0.5l0-0.7v-1.6h1.2v6.6h-1L78.8,17h0
			c-0.3,0.3-0.8,0.6-1.3,0.6C76.3,17.6,75.6,16.7,75.6,15.2z M78.6,16.1v-2c-0.3-0.3-0.6-0.3-0.9-0.3c-0.5,0-1,0.5-1,1.4
			c0,1,0.3,1.4,1,1.4C78.1,16.6,78.4,16.5,78.6,16.1z"/>
		<path class="st1" d="M82.1,16.2c0-1,0.8-1.5,2.6-1.7c0-0.5-0.2-0.8-0.8-0.8c-0.4,0-0.8,0.2-1.3,0.4l-0.4-0.8
			c0.5-0.3,1.2-0.6,1.9-0.6c1.2,0,1.8,0.7,1.8,2v2.7h-1L84.9,17h0c-0.4,0.3-0.9,0.6-1.4,0.6C82.7,17.6,82.1,17,82.1,16.2z
			 M84.8,16.2v-0.9c-1.1,0.1-1.5,0.5-1.5,0.9c0,0.4,0.3,0.5,0.6,0.5C84.2,16.7,84.5,16.5,84.8,16.2z"/>
		<path class="st1" d="M86.9,12.9h1l0.1,0.5h0c0.4-0.3,0.9-0.6,1.4-0.6c1.1,0,1.8,0.9,1.8,2.3c0,1.6-0.9,2.5-2,2.5
			c-0.4,0-0.8-0.2-1.1-0.5l0,0.8v1.4h-1.2V12.9z M89.9,15.1c0-0.9-0.3-1.4-0.9-1.4c-0.3,0-0.6,0.2-0.9,0.5v2
			c0.3,0.3,0.6,0.3,0.8,0.3C89.5,16.6,89.9,16.1,89.9,15.1z"/>
		<path class="st1" d="M91.9,12.9h1l0.1,0.5h0c0.4-0.3,0.9-0.6,1.4-0.6c1.1,0,1.8,0.9,1.8,2.3c0,1.6-0.9,2.5-2,2.5
			c-0.4,0-0.8-0.2-1.1-0.5l0,0.8v1.4h-1.2V12.9z M94.9,15.1c0-0.9-0.3-1.4-0.9-1.4c-0.3,0-0.6,0.2-0.9,0.5v2
			c0.3,0.3,0.6,0.3,0.8,0.3C94.4,16.6,94.9,16.1,94.9,15.1z"/>
		<path class="st1" d="M98.1,15.2c0-1.5,1.1-2.4,2.2-2.4s2.2,0.9,2.2,2.4c0,1.5-1.1,2.4-2.2,2.4S98.1,16.7,98.1,15.2z M101.3,15.2
			c0-0.9-0.4-1.4-1-1.4s-1,0.6-1,1.4c0,0.9,0.4,1.4,1,1.4S101.3,16.1,101.3,15.2z"/>
		<path class="st1" d="M103.2,12.9h1l0.1,0.6h0c0.4-0.4,0.9-0.7,1.5-0.7c1,0,1.4,0.7,1.4,1.9v2.9H106v-2.7c0-0.7-0.2-1-0.6-1
			c-0.4,0-0.6,0.2-1,0.5v3.2h-1.2V12.9z"/>
	</g>
</g>
</svg>
