<svg class="lds-spinner" width="66px"  height="66px"  xmlns="http://www.w3.org/2000/svg" xmlns:xlink="http://www.w3.org/1999/xlink" viewBox="0 0 100 100" preserveAspectRatio="xMidYMid" style="background: rgb(255, 255, 255);"><g transform="rotate(0 50 50)">
  <rect x="47" y="26.5" rx="0" ry="0" width="6" height="3" fill="#ff7757">
    <animate attributeName="opacity" values="1;0" keyTimes="0;1" dur="0.8s" begin="-0.7771428571428572s" repeatCount="indefinite"></animate>
  </rect>
</g><g transform="rotate(10.285714285714286 50 50)">
  <rect x="47" y="26.5" rx="0" ry="0" width="6" height="3" fill="#ff7757">
    <animate attributeName="opacity" values="1;0" keyTimes="0;1" dur="0.8s" begin="-0.7542857142857143s" repeatCount="indefinite"></animate>
  </rect>
</g><g transform="rotate(20.571428571428573 50 50)">
  <rect x="47" y="26.5" rx="0" ry="0" width="6" height="3" fill="#ff7757">
    <animate attributeName="opacity" values="1;0" keyTimes="0;1" dur="0.8s" begin="-0.7314285714285714s" repeatCount="indefinite"></animate>
  </rect>
</g><g transform="rotate(30.857142857142858 50 50)">
  <rect x="47" y="26.5" rx="0" ry="0" width="6" height="3" fill="#ff7757">
    <animate attributeName="opacity" values="1;0" keyTimes="0;1" dur="0.8s" begin="-0.7085714285714286s" repeatCount="indefinite"></animate>
  </rect>
</g><g transform="rotate(41.142857142857146 50 50)">
  <rect x="47" y="26.5" rx="0" ry="0" width="6" height="3" fill="#ff7757">
    <animate attributeName="opacity" values="1;0" keyTimes="0;1" dur="0.8s" begin="-0.6857142857142857s" repeatCount="indefinite"></animate>
  </rect>
</g><g transform="rotate(51.42857142857143 50 50)">
  <rect x="47" y="26.5" rx="0" ry="0" width="6" height="3" fill="#ff7757">
    <animate attributeName="opacity" values="1;0" keyTimes="0;1" dur="0.8s" begin="-0.6628571428571429s" repeatCount="indefinite"></animate>
  </rect>
</g><g transform="rotate(61.714285714285715 50 50)">
  <rect x="47" y="26.5" rx="0" ry="0" width="6" height="3" fill="#ff7757">
    <animate attributeName="opacity" values="1;0" keyTimes="0;1" dur="0.8s" begin="-0.64s" repeatCount="indefinite"></animate>
  </rect>
</g><g transform="rotate(72 50 50)">
  <rect x="47" y="26.5" rx="0" ry="0" width="6" height="3" fill="#ff7757">
    <animate attributeName="opacity" values="1;0" keyTimes="0;1" dur="0.8s" begin="-0.6171428571428572s" repeatCount="indefinite"></animate>
  </rect>
</g><g transform="rotate(82.28571428571429 50 50)">
  <rect x="47" y="26.5" rx="0" ry="0" width="6" height="3" fill="#ff7757">
    <animate attributeName="opacity" values="1;0" keyTimes="0;1" dur="0.8s" begin="-0.5942857142857143s" repeatCount="indefinite"></animate>
  </rect>
</g><g transform="rotate(92.57142857142857 50 50)">
  <rect x="47" y="26.5" rx="0" ry="0" width="6" height="3" fill="#ff7757">
    <animate attributeName="opacity" values="1;0" keyTimes="0;1" dur="0.8s" begin="-0.5714285714285714s" repeatCount="indefinite"></animate>
  </rect>
</g><g transform="rotate(102.85714285714286 50 50)">
  <rect x="47" y="26.5" rx="0" ry="0" width="6" height="3" fill="#ff7757">
    <animate attributeName="opacity" values="1;0" keyTimes="0;1" dur="0.8s" begin="-0.5485714285714286s" repeatCount="indefinite"></animate>
  </rect>
</g><g transform="rotate(113.14285714285714 50 50)">
  <rect x="47" y="26.5" rx="0" ry="0" width="6" height="3" fill="#ff7757">
    <animate attributeName="opacity" values="1;0" keyTimes="0;1" dur="0.8s" begin="-0.5257142857142858s" repeatCount="indefinite"></animate>
  </rect>
</g><g transform="rotate(123.42857142857143 50 50)">
  <rect x="47" y="26.5" rx="0" ry="0" width="6" height="3" fill="#ff7757">
    <animate attributeName="opacity" values="1;0" keyTimes="0;1" dur="0.8s" begin="-0.5028571428571429s" repeatCount="indefinite"></animate>
  </rect>
</g><g transform="rotate(133.71428571428572 50 50)">
  <rect x="47" y="26.5" rx="0" ry="0" width="6" height="3" fill="#ff7757">
    <animate attributeName="opacity" values="1;0" keyTimes="0;1" dur="0.8s" begin="-0.48000000000000004s" repeatCount="indefinite"></animate>
  </rect>
</g><g transform="rotate(144 50 50)">
  <rect x="47" y="26.5" rx="0" ry="0" width="6" height="3" fill="#ff7757">
    <animate attributeName="opacity" values="1;0" keyTimes="0;1" dur="0.8s" begin="-0.45714285714285713s" repeatCount="indefinite"></animate>
  </rect>
</g><g transform="rotate(154.28571428571428 50 50)">
  <rect x="47" y="26.5" rx="0" ry="0" width="6" height="3" fill="#ff7757">
    <animate attributeName="opacity" values="1;0" keyTimes="0;1" dur="0.8s" begin="-0.43428571428571433s" repeatCount="indefinite"></animate>
  </rect>
</g><g transform="rotate(164.57142857142858 50 50)">
  <rect x="47" y="26.5" rx="0" ry="0" width="6" height="3" fill="#ff7757">
    <animate attributeName="opacity" values="1;0" keyTimes="0;1" dur="0.8s" begin="-0.4114285714285714s" repeatCount="indefinite"></animate>
  </rect>
</g><g transform="rotate(174.85714285714286 50 50)">
  <rect x="47" y="26.5" rx="0" ry="0" width="6" height="3" fill="#ff7757">
    <animate attributeName="opacity" values="1;0" keyTimes="0;1" dur="0.8s" begin="-0.3885714285714286s" repeatCount="indefinite"></animate>
  </rect>
</g><g transform="rotate(185.14285714285714 50 50)">
  <rect x="47" y="26.5" rx="0" ry="0" width="6" height="3" fill="#ff7757">
    <animate attributeName="opacity" values="1;0" keyTimes="0;1" dur="0.8s" begin="-0.3657142857142857s" repeatCount="indefinite"></animate>
  </rect>
</g><g transform="rotate(195.42857142857142 50 50)">
  <rect x="47" y="26.5" rx="0" ry="0" width="6" height="3" fill="#ff7757">
    <animate attributeName="opacity" values="1;0" keyTimes="0;1" dur="0.8s" begin="-0.34285714285714286s" repeatCount="indefinite"></animate>
  </rect>
</g><g transform="rotate(205.71428571428572 50 50)">
  <rect x="47" y="26.5" rx="0" ry="0" width="6" height="3" fill="#ff7757">
    <animate attributeName="opacity" values="1;0" keyTimes="0;1" dur="0.8s" begin="-0.32s" repeatCount="indefinite"></animate>
  </rect>
</g><g transform="rotate(216 50 50)">
  <rect x="47" y="26.5" rx="0" ry="0" width="6" height="3" fill="#ff7757">
    <animate attributeName="opacity" values="1;0" keyTimes="0;1" dur="0.8s" begin="-0.29714285714285715s" repeatCount="indefinite"></animate>
  </rect>
</g><g transform="rotate(226.28571428571428 50 50)">
  <rect x="47" y="26.5" rx="0" ry="0" width="6" height="3" fill="#ff7757">
    <animate attributeName="opacity" values="1;0" keyTimes="0;1" dur="0.8s" begin="-0.2742857142857143s" repeatCount="indefinite"></animate>
  </rect>
</g><g transform="rotate(236.57142857142858 50 50)">
  <rect x="47" y="26.5" rx="0" ry="0" width="6" height="3" fill="#ff7757">
    <animate attributeName="opacity" values="1;0" keyTimes="0;1" dur="0.8s" begin="-0.25142857142857145s" repeatCount="indefinite"></animate>
  </rect>
</g><g transform="rotate(246.85714285714286 50 50)">
  <rect x="47" y="26.5" rx="0" ry="0" width="6" height="3" fill="#ff7757">
    <animate attributeName="opacity" values="1;0" keyTimes="0;1" dur="0.8s" begin="-0.22857142857142856s" repeatCount="indefinite"></animate>
  </rect>
</g><g transform="rotate(257.14285714285717 50 50)">
  <rect x="47" y="26.5" rx="0" ry="0" width="6" height="3" fill="#ff7757">
    <animate attributeName="opacity" values="1;0" keyTimes="0;1" dur="0.8s" begin="-0.2057142857142857s" repeatCount="indefinite"></animate>
  </rect>
</g><g transform="rotate(267.42857142857144 50 50)">
  <rect x="47" y="26.5" rx="0" ry="0" width="6" height="3" fill="#ff7757">
    <animate attributeName="opacity" values="1;0" keyTimes="0;1" dur="0.8s" begin="-0.18285714285714286s" repeatCount="indefinite"></animate>
  </rect>
</g><g transform="rotate(277.7142857142857 50 50)">
  <rect x="47" y="26.5" rx="0" ry="0" width="6" height="3" fill="#ff7757">
    <animate attributeName="opacity" values="1;0" keyTimes="0;1" dur="0.8s" begin="-0.16s" repeatCount="indefinite"></animate>
  </rect>
</g><g transform="rotate(288 50 50)">
  <rect x="47" y="26.5" rx="0" ry="0" width="6" height="3" fill="#ff7757">
    <animate attributeName="opacity" values="1;0" keyTimes="0;1" dur="0.8s" begin="-0.13714285714285715s" repeatCount="indefinite"></animate>
  </rect>
</g><g transform="rotate(298.2857142857143 50 50)">
  <rect x="47" y="26.5" rx="0" ry="0" width="6" height="3" fill="#ff7757">
    <animate attributeName="opacity" values="1;0" keyTimes="0;1" dur="0.8s" begin="-0.11428571428571428s" repeatCount="indefinite"></animate>
  </rect>
</g><g transform="rotate(308.57142857142856 50 50)">
  <rect x="47" y="26.5" rx="0" ry="0" width="6" height="3" fill="#ff7757">
    <animate attributeName="opacity" values="1;0" keyTimes="0;1" dur="0.8s" begin="-0.09142857142857143s" repeatCount="indefinite"></animate>
  </rect>
</g><g transform="rotate(318.85714285714283 50 50)">
  <rect x="47" y="26.5" rx="0" ry="0" width="6" height="3" fill="#ff7757">
    <animate attributeName="opacity" values="1;0" keyTimes="0;1" dur="0.8s" begin="-0.06857142857142857s" repeatCount="indefinite"></animate>
  </rect>
</g><g transform="rotate(329.14285714285717 50 50)">
  <rect x="47" y="26.5" rx="0" ry="0" width="6" height="3" fill="#ff7757">
    <animate attributeName="opacity" values="1;0" keyTimes="0;1" dur="0.8s" begin="-0.045714285714285714s" repeatCount="indefinite"></animate>
  </rect>
</g><g transform="rotate(339.42857142857144 50 50)">
  <rect x="47" y="26.5" rx="0" ry="0" width="6" height="3" fill="#ff7757">
    <animate attributeName="opacity" values="1;0" keyTimes="0;1" dur="0.8s" begin="-0.022857142857142857s" repeatCount="indefinite"></animate>
  </rect>
</g><g transform="rotate(349.7142857142857 50 50)">
  <rect x="47" y="26.5" rx="0" ry="0" width="6" height="3" fill="#ff7757">
    <animate attributeName="opacity" values="1;0" keyTimes="0;1" dur="0.8s" begin="0s" repeatCount="indefinite"></animate>
  </rect>
</g></svg>