<?xml version="1.0" encoding="utf-8"?>
<!-- Generator: Adobe Illustrator 24.0.0, SVG Export Plug-In . SVG Version: 6.00 Build 0)  -->
<svg version="1.1" id="圖層_1" xmlns="http://www.w3.org/2000/svg" xmlns:xlink="http://www.w3.org/1999/xlink" x="0px" y="0px"
	 viewBox="0 0 120 155" style="enable-background:new 0 0 120 155;" xml:space="preserve">
<style type="text/css">
	.st0{fill:#63A5BF;}
	.st1{fill:#5193B1;}
	.st2{fill:#49849F;}
	.st3{clip-path:url(#SVGID_2_);}
	.st4{fill:url(#SVGID_3_);}
	.st5{enable-background:new    ;}
</style>
<title>TV-icon</title>
<g>
	<path class="st0" d="M22.9,0h74.2C109.7,0,120,10.3,120,22.9v74.2c0,12.7-10.3,22.9-22.9,22.9H22.9C10.3,120,0,109.7,0,97.1V22.9
		C0,10.3,10.3,0,22.9,0z"/>
	<path class="st1" d="M0,75.5v21.6C0,109.7,10.3,120,22.9,120h74.2c12.6,0,22.9-10.3,22.9-22.9V75.5H0z"/>
	<path class="st2" d="M97.1,110.5H22.9C10.3,110.5,0,100.2,0,87.6v9.5C0,109.7,10.3,120,22.9,120h74.2c12.6,0,22.9-10.3,22.9-22.9
		v-9.5C120,100.2,109.7,110.5,97.1,110.5z"/>
	<g>
		<defs>
			<path id="SVGID_1_" d="M22.9,0h74.2C109.7,0,120,10.3,120,22.9v74.2c0,12.7-10.3,22.9-22.9,22.9H22.9C10.3,120,0,109.7,0,97.1
				V22.9C0,10.3,10.3,0,22.9,0z"/>
		</defs>
		<clipPath id="SVGID_2_">
			<use xlink:href="#SVGID_1_"  style="overflow:visible;"/>
		</clipPath>
		<g class="st3">
			<path class="st1" d="M96.4,54.2c-10.4,0-19.7,6.2-23.8,15.7c-4.8-7-12.8-11.2-21.3-11.2c-1.3,0-2.6,0.1-3.8,0.3
				c-4.1-13.7-18.5-21.5-32.2-17.4S-6.3,60.1-2.2,73.8c3.3,11,13.4,18.5,24.8,18.5c1.3,0,2.6-0.1,3.9-0.3
				c4.1,13.7,18.6,21.5,32.3,17.4c7.4-2.2,13.3-7.6,16.4-14.6c8.1,11.8,24.3,14.7,36,6.6s14.7-24.3,6.6-36
				C112.9,58.4,104.9,54.2,96.4,54.2z"/>
		</g>
	</g>
	
		<linearGradient id="SVGID_3_" gradientUnits="userSpaceOnUse" x1="69.1065" y1="129.2882" x2="48.9365" y2="71.2882" gradientTransform="matrix(1 0 0 -1 0 156)">
		<stop  offset="0" style="stop-color:#FDFDFD"/>
		<stop  offset="1" style="stop-color:#E0DFDE"/>
	</linearGradient>
	<path class="st4" d="M86.1,28.6H33.9c-3.3,0-6,2.7-6,6v36.6c0,3.3,2.7,6,6,6h14.7l-5.8,8.1h34.5l-5.8-8h14.7c3.3,0,6-2.7,6-6V34.7
		C92.1,31.4,89.4,28.7,86.1,28.6z M82.2,64.9c0,2.2-1.8,4-4,4H41.7c-2.2,0-4-1.8-4-4V42.5c0-2.2,1.8-4,4-4h36.6c2.2,0,4,1.8,4,4
		L82.2,64.9z"/>
	<g class="st5">
		<path class="st2" d="M9.3,133.2H2.3v-4.1h18.9v4.1h-7v20.6H9.3V133.2z"/>
		<path class="st2" d="M25.2,129.1h4.9v10.7h0.1l8.2-10.7h5.4l-7.5,9.7l8.9,15h-5.4l-6.4-11.1l-3.2,4.1v6.9h-4.9V129.1z"/>
		<path class="st2" d="M48.1,129.1h8.2c5.1,0,8.9,1.5,8.9,6.1c0,2.3-1.3,4.6-3.4,5.3v0.2c2.7,0.6,4.6,2.5,4.6,5.8
			c0,5-4.1,7.3-9.6,7.3h-8.8V129.1z M56,139.1c3.1,0,4.5-1.3,4.5-3.2c0-2.2-1.5-3-4.4-3h-2.9v6.3H56z M56.5,150
			c3.4,0,5.2-1.2,5.2-3.8c0-2.4-1.8-3.4-5.2-3.4h-3.4v7.2H56.5z"/>
		<path class="st2" d="M83.4,133.2h-6.9v-4.1h18.9v4.1h-7v20.6h-4.9V133.2z"/>
		<path class="st2" d="M96.1,129.1h5.2l3.3,12c0.8,2.7,1.3,5.2,2.1,8h0.2c0.8-2.8,1.3-5.2,2.1-8l3.2-12h5l-7.6,24.7h-5.9L96.1,129.1
			z"/>
	</g>
</g>
</svg>
